<?xml version="1.0" standalone="no"?>
<!DOCTYPE svg PUBLIC "-//W3C//DTD SVG 1.1//EN" "http://www.w3.org/Graphics/SVG/1.1/DTD/svg11.dtd" >
<svg xmlns="http://www.w3.org/2000/svg">
<metadata>Generated by IcoMoon</metadata>
<defs>
<font id="keni8-icons" horiz-adv-x="1024">
<font-face units-per-em="1024" ascent="960" descent="-64" />
<missing-glyph horiz-adv-x="1024" />
<glyph unicode="&#x20;" horiz-adv-x="512" d="" />
<glyph unicode="&#xe900;" glyph-name="arrow_down" d="M825.668 399.565c0 0 67.601 8.073 31.829-28.672l-334.729-336.657c0 0-20.207-26.027-38.485 0.495l-332.715 335.104c0 0-35.635 29.696 34.475 29.696h162.867l-0.495 414.071c3.209 64 68.949 63.863 68.949 63.863l173.073-0.068c65.058-2.133 66.133-68.267 66.133-68.267l-0.461-409.6 169.557 0.034z" />
<glyph unicode="&#xe901;" glyph-name="arrow_left" d="M467.388 769.98c0 0 3.191 67.601-33.57 31.846l-330.223-329.387c0 0-26.044-20.207 0.495-38.468l328.67-330.598c0 0 34.594-35.635 34.594 34.492v160.102l414.123 0.137c64 3.209 63.795 68.966 63.795 68.966l-0.068 173.039c-2.099 65.058-68.233 66.133-68.233 66.133l-409.6-1.058 0.017 164.796z" />
<glyph unicode="&#xe902;" glyph-name="arrow_right" d="M536.371 758.63c0 0-3.174 67.601 33.57 31.863l336.64-329.421c0 0 26.027-20.207-0.461-38.468l-335.155-330.581c0 0-34.526-35.635-34.526 34.492v160.102l-414.123 0.137c-64 3.209-63.846 68.966-63.846 68.966l0.068 173.056c2.133 65.058 68.267 66.133 68.267 66.133l409.6-1.058v164.813l-0.034-0.034z" />
<glyph unicode="&#xe903;" glyph-name="arrow_s_down" d="M31.13 687.753l75.742 27.87 398.473-431.906 398.404 431.906 75.793-27.87-474.197-507.392-474.214 507.392z" />
<glyph unicode="&#xe904;" glyph-name="arrow_s_left" d="M271.855 448l507.375 474.197 27.87-75.793-431.906-398.404 431.906-398.473-27.87-75.742-507.375 474.214z" />
<glyph unicode="&#xe905;" glyph-name="arrow_s_right" d="M299.725-26.197l-27.87 75.742 431.923 398.455-431.923 398.404 27.87 75.793 507.392-474.197-507.392-474.197z" />
<glyph unicode="&#xe906;" glyph-name="arrow_s_up" d="M505.344 715.639l474.197-507.375-75.776-27.887-398.421 431.906-398.473-431.923-75.742 27.887 474.214 507.392z" />
<glyph unicode="&#xe907;" glyph-name="arrow_up" d="M179.166 492.732c0 0-67.601-8.038-31.863 28.672l334.729 336.623c0 0 20.207 26.061 38.468-0.478l332.732-335.121c0 0 35.635-29.679-34.475-29.679h-162.833l0.427-414.071c-3.209-64-68.966-63.863-68.966-63.863l-173.039 0.068c-65.058 2.133-66.133 68.267-66.133 68.267l0.461 409.6-169.506-0.017z" />
<glyph unicode="&#xe908;" glyph-name="beginner" d="M776.004 870.537c-9.37 0-19.934-2.219-30.106-6.639-2.236-0.973-4.625-2.202-6.537-3.703l-222.601-173.534c-1.246-0.99-4.762-2.219-4.762-3.362v-2.611c0 2.15-3.106 4.284-5.547 6.212l-225.826 173.5c-1.809 1.417-3.601 2.56-5.734 3.499-10.172 4.386-22.579 6.639-32.905 6.639-33.348 0-71.322-25.31-71.322-80.862v-473.702c0-37.205 42.854-72.26 55.040-81.937 9.37-7.646 230.861-187.494 240.23-194.918 9.865-7.834 29.269-13.602 47.804-13.602s29.628 5.973 39.441 13.619c0 0.034 229.393 182.34 244.975 194.662 24.047 19.046 38.144 55.774 38.144 82.125v473.719c-0.034 59.665-31.829 80.896-60.297 80.896zM257.57 278.033c-18.398 14.575-35.703 32.358-35.703 37.939v473.702c0 4.045 5.393 24.457 17.647 24.457 1.724 0 6.042-0.358 8.073-0.99l260.454-189.44c3.755-4.198 3.959-24.474 3.959-33.109v-504.951c-51.2 39.305-193.382 142.592-254.43 192.393z" />
<glyph unicode="&#xe909;" glyph-name="blank" d="M624.828 772.335c0 0-29.457 26.761 0.7 27.204l276.753 2.97c0 0 19.217 2.475 15.787-16.145l-1.86-276.634c0 0 0.427-29.184-28.706-0.051l-66.526 66.509-172.1-172.015c-27.938-25.242-55.159 2.133-55.159 2.133l-71.885 71.936c-26.146 27.921 0.887 55.825 0.887 55.825l170.65 169.762-68.54 68.506zM887.467 89.6h-768c-28.262 0-51.2 22.938-51.2 51.2v597.333c0 28.262 22.938 51.2 51.2 51.2h375.467c28.262 0 51.2-22.938 51.2-51.2s-22.938-51.2-51.2-51.2h-324.267v-494.933h665.6v153.6c0 28.262 22.938 51.2 51.2 51.2s51.2-22.938 51.2-51.2v-204.8c0-28.262-22.938-51.2-51.2-51.2z" />
<glyph unicode="&#xe90a;" glyph-name="building" d="M775.595 890.266h-554.069c-26.641 0-48.179-21.606-48.179-48.179v-795.051c0-26.641 21.572-48.179 48.179-48.179h554.069c26.658 0 48.196 21.589 48.196 48.179v795.051c0.034 26.573-21.538 48.179-48.196 48.179zM390.161 95.215h-120.474v192.734h120.474v-192.734zM390.161 336.128h-120.474v120.474h120.474v-120.474zM390.161 504.781h-120.474v120.474h120.474v-120.474zM390.161 673.434h-120.474v120.474h120.474v-120.474zM558.814 336.128h-120.491v120.474h120.491v-120.474zM558.814 504.781h-120.491v120.474h120.491v-120.474zM558.814 673.434h-120.491v120.474h120.491v-120.474zM727.45 95.215h-120.491v192.734h120.491v-192.734zM727.45 336.128h-120.491v120.474h120.491v-120.474zM727.45 504.781h-120.491v120.474h120.491v-120.474zM727.45 673.434h-120.491v120.474h120.491v-120.474z" />
<glyph unicode="&#xe90b;" glyph-name="calendar" d="M307.115 674.219c37.7 0 68.267 30.566 68.267 68.267v68.267c0 37.7-30.566 68.267-68.267 68.267s-68.267-30.566-68.267-68.267v-68.267c0-37.7 30.566-68.267 68.267-68.267zM716.715 674.219c37.7 0 68.267 30.566 68.267 68.267v68.267c0 37.7-30.566 68.267-68.267 68.267s-68.267-30.566-68.267-68.267v-68.267c0-37.7 30.566-68.267 68.267-68.267zM887.381 776.619h-68.267v-34.133c0 0-1.058-103.458-102.4-103.458 0 0-102.4 1.058-102.4 102.4l-1.058 35.191h-204.8v-34.133c0 0 1.058-103.458-101.342-103.458 0 0-103.458-1.058-103.458 102.4v35.191h-67.209c-37.7 0-68.267-30.549-68.267-68.267v-614.4c0-37.7 30.566-68.267 68.267-68.267h750.933c37.7 0 68.267 30.566 68.267 68.267v614.4c0 37.717-30.566 68.267-68.267 68.267zM272.981 93.952h-136.533v102.4h136.533v-102.4zM272.981 264.619h-136.533v102.4h136.533v-102.4zM272.981 435.285h-136.533v102.4h136.533v-102.4zM477.781 93.952h-136.533v102.4h136.533v-102.4zM477.781 264.619h-136.533v102.4h136.533v-102.4zM477.781 435.285h-136.533v102.4h136.533v-102.4zM682.581 93.952h-136.533v102.4h136.533v-102.4zM682.581 264.619h-136.533v102.4h136.533v-102.4zM682.581 435.285h-136.533v102.4h136.533v-102.4zM887.381 93.952h-136.533v102.4h136.533v-102.4zM887.381 264.619h-136.533v102.4h136.533v-102.4zM887.381 435.285h-136.533v102.4h136.533v-102.4z" />
<glyph unicode="&#xe90c;" glyph-name="cart" d="M921.276 698.197l-523.008 44.8c-22.63 0-47.991-18.33-40.96-40.96l84.412-314.436c9.591-28.365 31.676-28.672 54.323-28.672h394.53c22.613 0 40.943 18.33 40.943 40.926l30.703 251.733c0.017 22.647-12.561 44.049-40.943 46.609zM842.752 311.535h-443.341l-139.913 511.437-170.667 13.636c-61.457-31.13-6.827-89.702-6.827-89.702l113.852-2.492 151.091-519.902h492.834c72.516 50.33 2.97 87.023 2.97 87.023zM447.642 195.038c-39.543 0-71.663-32.102-71.663-71.663 0-39.526 32.119-71.629 71.663-71.629 39.578 0 71.68 32.102 71.68 71.629 0.017 39.561-32.085 71.663-71.68 71.663zM772.113 193.775c-39.236 0-71.014-31.761-71.014-70.997 0-39.27 31.778-71.031 71.014-71.031 39.27 0 71.066 31.761 71.066 71.031 0 39.202-31.795 70.997-71.066 70.997z" />
<glyph unicode="&#xe90d;" glyph-name="caution" d="M957.372 121.566l-383.539 666.197c0 0-57.6 83.763-125.662 1.297l-384.7-667.494c0 0-72.192-80.674 12.203-82.842h875.895c0 0.034 76.493 8.226 5.803 82.842zM443.187 596.873c0 33.963 36.779 58.675 70.758 58.675 33.997 0 67.499-24.713 67.499-58.675v-256.393c0-33.98-35.635-61.508-69.632-61.508-33.963 0-68.625 27.529-68.625 61.508v256.393zM516.028 106.513c-38.4 0-69.53 31.147-69.53 69.547s31.13 69.495 69.53 69.495c38.434 0 69.564-31.095 69.564-69.495s-31.13-69.547-69.564-69.547z" />
<glyph unicode="&#xe90e;" glyph-name="download" d="M691.797 522.206c0 0 40.567 4.83 19.098-17.22l-200.875-201.984c0 0-12.117-15.633-23.091 0.341l-199.612 201.062c0 0-21.385 17.801 20.668 17.801h97.724l-0.29 248.474c1.911 38.4 41.387 38.298 41.387 38.298l103.799-0.034c39.066-1.263 39.68-40.96 39.68-40.96l-0.29-245.743 101.803-0.034zM904.533 396.8c-28.262 0-51.2-22.938-51.2-51.2v-153.6h-699.733v153.6c0 28.262-22.921 51.2-51.2 51.2s-51.2-22.938-51.2-51.2v-204.8c0-28.262 22.921-51.2 51.2-51.2h802.133c28.262 0 51.2 22.938 51.2 51.2v204.8c0 28.262-22.938 51.2-51.2 51.2z" />
<glyph unicode="&#xe90f;" glyph-name="folder" d="M180.531 123.665l664.183 0.341c0 0 40.533-2.133 53.333 44.8l110.933 364.8c0 0 19.2 68.267-53.333 68.267 0 0-539.767 0-689.067 0-20.395 0-40.533-29.833-40.533-29.833l-64.717-411.75c0.017-0.017-4.25-36.625 19.2-36.625zM110.933 123.631c0 0-29.952 4.625-29.952 36.625l-66.133 567.484c0 0-2.133-29.867-2.133 10.667 0 40.499 32 34.133 32 34.133h277.333c40.619 0 34.133-36.267 34.133-36.267 0-29.867 38.4-34.133 38.4-34.133l472.286 2.133c34.133 0 29.867-36.301 29.867-36.301 0-29.833-32.017-31.966-32.017-31.966h-615.202c-78.933 0-68.267-68.267-68.267-68.267l-70.315-444.109z" />
<glyph unicode="&#xe910;" glyph-name="home" d="M984.013 491.127c8.704-7.595 10.001-22.050 2.662-31.061l-41.506-51.046c-3.396-4.164-8.67-6.81-14.097-7.509-0.7 0-1.365 0-1.894 0-5.427 0-10.172 1.263-14.097 4.762l-408.252 341.692-408.269-341.692c-4.625-3.499-10.001-5.478-16.009-4.762-5.359 0.7-10.718 3.345-14.097 7.509l-41.523 51.046c-7.356 9.011-5.99 23.467 2.714 31.061l426.325 356.898c28.058 24.235 73.609 24.235 101.649 0l426.394-356.898zM859.75 72.397c0-22.153-17.732-40.465-39.202-40.465h-235.298v242.688h-156.843v-242.688h-235.349c-21.402 0-39.168 18.313-39.168 40.465v303.36c0 1.28 0.631 2.543 0.631 3.823l352.307 299.588 352.29-299.605c0.631-1.229 0.631-2.492 0.631-3.823v-303.343z" />
<glyph unicode="&#xe911;" glyph-name="check" d="M966.263 708.932l-412.143-436.207c-8.67-9.114-20.651-14.199-32.649-14.199-11.964 0-23.979 5.086-32.563 14.199l-238.711 252.587c-8.636 9.131-13.431 21.811-13.431 34.475 0 12.681 4.83 25.378 13.431 34.441l65.212 69.001c8.653 9.165 20.617 14.199 32.563 14.199 12.015 0 24.030-5.069 32.631-14.199l140.868-149.641 314.419 333.244c8.67 9.165 20.617 14.165 32.614 14.165 11.93 0 23.996-5.001 32.631-14.165l65.126-68.966c8.636-9.131 13.431-21.777 13.431-34.543 0-12.612-4.796-25.259-13.431-34.389zM815.889 0.051h-730.522c-23.74 0-42.957 20.326-42.957 45.449v772.966c0 25.156 19.217 45.449 42.957 45.449 23.723 0 42.991-20.292 42.991-45.449v-727.484h687.531c23.757 0 42.991-20.326 42.991-45.483-0.017-25.122-19.251-45.449-42.991-45.449z" />
<glyph unicode="&#xe912;" glyph-name="laquo" d="M226.743 495.543c7.314 18.286 14.629 40.229 25.6 58.514s21.943 36.571 36.571 51.2c14.629 14.629 29.257 29.257 43.886 43.886 18.286 10.971 32.914 21.943 51.2 29.257s36.571 14.629 54.857 18.286c21.943 3.657 47.543 7.314 65.829 7.314l25.6 120.686c-25.6 0-76.8-3.657-117.029-10.971-29.257-7.314-54.857-18.286-80.457-29.257-21.943-10.971-47.543-25.6-69.486-43.886-21.943-14.629-43.886-36.571-62.171-58.514-18.286-18.286-36.571-43.886-54.857-69.486-14.629-21.943-25.6-47.543-36.571-76.8-7.314-29.257-18.286-58.514-21.943-87.771 0-7.314 0-14.629-3.657-21.943l-80.457-347.429h354.743l84.114 358.4h-234.057c7.314 18.286 10.971 40.229 18.286 58.514zM742.4 557.714c10.971 18.286 21.943 36.571 36.571 51.2s29.257 29.257 43.886 40.229c18.286 10.971 32.914 21.943 51.2 29.257s36.571 14.629 54.857 18.286c21.943 3.657 47.543 7.314 65.829 7.314l25.6 120.686c-25.6 0-76.8-3.657-117.029-10.971-29.257-7.314-54.857-18.286-80.457-29.257-21.943-10.971-47.543-25.6-69.486-43.886-21.943-14.629-43.886-36.571-65.829-58.514-18.286-21.943-36.571-43.886-51.2-69.486-14.629-21.943-25.6-47.543-36.571-76.8-7.314-29.257-18.286-58.514-21.943-87.771 0-3.657 0-7.314 0-10.971h-3.657l-80.457-358.4h354.743l84.114 358.4h-237.714c3.657 21.943 10.971 40.229 18.286 62.171 7.314 18.286 18.286 40.229 29.257 58.514z" />
<glyph unicode="&#xe913;" glyph-name="lock" d="M938.667 637.44h-85.333c0 177.493-145.067 322.56-322.56 322.56h-46.080c-177.493 0-320.853-145.067-320.853-322.56h-87.040c-27.307 0-51.2-22.187-51.2-51.2v-599.040c0-27.307 22.187-51.2 51.2-51.2h861.867c27.307 0 51.2 22.187 51.2 51.2v600.747c0 27.307-22.187 49.493-51.2 49.493zM593.92 79.36h-172.373l47.787 206.507c-44.373 15.36-76.8 59.733-76.8 109.227 0 64.853 52.907 116.053 116.053 116.053s116.053-52.907 116.053-116.053c0-51.2-32.427-93.867-76.8-109.227l46.080-206.507zM267.947 637.44c0 119.467 97.28 216.747 216.747 216.747h46.080c119.467 0 216.747-97.28 216.747-216.747h-479.573z" />
<glyph unicode="&#xe914;" glyph-name="mail" d="M667.375 437.060c0 0-16.998 33.826-72.294-35.106l-73.438-72.226c0 0-15.872-18.125-36.198 0l-72.294 72.226c0 0-52.002 72.329-72.294 37.342l-216.986-238.49c0 0-71.202-73.404 1.126-73.404h759.313c0 0 71.168 0-1.126 71.185l-215.808 238.473zM307.149 460.066c20.378 20.395-21.862 48.162-21.862 48.162l-186.692 152.713c-55.91 55.91-46.012 2.97-46.012 2.97l-1.041-443.785c0-70.042 72.311 38.4 72.311 38.4l183.296 201.54zM486.793 403.627c0 0 16.691-22.391 34.577 0.427l396.783 325.598c0 0 34.953 33.894-33.775 33.894h-763.375c0 0-69.018 0.341-33.997-35.703l399.787-324.215zM954.692 663.893c0 0 9.882 52.975-45.978-2.97l-186.743-152.695c0 0-42.257-27.767-21.862-48.162l183.313-201.557c0 0 72.329-108.442 72.329-38.4l-1.058 443.785z" />
<glyph unicode="&#xe915;" glyph-name="map" d="M493.107 893.747c-180.395 0-338.398-146.261-338.398-326.69 0-64.666 40.533-163.482 111.326-261.99 88.371-122.914 160.973-238.455 195.618-275.934 17.033-18.398 39.083-19.814 55.654-0.205 33.365 39.509 114.074 152.32 204.937 276.207 69.188 94.276 113.698 195.618 113.698 261.922-0.034 180.429-162.406 326.69-342.835 326.69zM495.292 432.606c-84.855 0-153.6 68.745-153.6 153.6 0 84.838 68.745 153.566 153.6 153.566 84.838 0 153.6-68.727 153.6-153.566 0-84.855-68.762-153.6-153.6-153.6z" />
<glyph unicode="&#xe916;" glyph-name="new" d="M511.949 900.966c-246.101 0-445.611-199.492-445.611-445.611 0-246.084 199.492-445.542 445.611-445.542 246.084 0 445.508 199.475 445.508 445.542 0.034 246.118-199.424 445.611-445.508 445.611zM358.4 328.533h-42.718l-76.749 142.797v-142.797h-51.2v221.867h46.063l90.47-145.493v145.493h34.133v-221.867zM563.2 328.533h-153.6v221.867h153.6v-34.133h-119.467v-51.2h102.4v-34.133h-102.4v-68.267h119.467v-34.133zM797.628 328.533h-44.476l-41.37 155.273-41.233-155.273h-45.466l-49.579 221.867h42.94l31.3-142.643 37.99 142.643h49.869l36.437-145.067 31.863 145.067h42.24l-50.517-221.867z" />
<glyph unicode="&#xe919;" glyph-name="pdf" d="M472.201 482.628l-64.171-125.662c0 0 122.999 29.406 144.401 32.068 0 0-74.871 66.867-80.23 93.594zM643.14 378.505c-12.919 5.973-31.3 10.701-51.575 20.275 8.311-6.758 26.982-20.395 41.079-20.395 2.85-0.017 6.519 0.051 10.496 0.119zM759.364 873.097h-512c0 0-68.267 3.209-68.267-62.208v-722.551c0 0 0.734-68.932 69.001-68.932h509.133c68.267 0 70.758 71.066 70.758 71.066v720.435c0.017 0-6.025 62.191-68.625 62.191zM317.133 220.638c-29.406-32.137-53.47-18.739-53.47-18.739-21.367 10.667-10.701 40.073-5.325 53.47 5.325 13.329 88.235 66.867 88.235 66.867-10.701-16.026-61.508-74.871-61.508-74.871-21.402-29.508 10.701-16.060 10.701-16.060 13.363 5.325 42.769 48.128 42.769 48.128 69.495 98.935 120.303 248.661 120.303 248.661-5.325 10.667-13.363 77.534-10.667 122.931 2.662 45.466 48.094 16.043 48.094 16.043 13.363-18.739-5.325-88.269-5.325-88.269l-5.342 32.137c5.342 18.688-5.325 42.752-5.325 42.752-5.325 21.402-16.026-2.662-13.363-26.726s21.402-101.598 21.402-101.598c27.307-78.694 68.062-110.012 103.253-126.601-2.697 2.202-4.352 3.669-4.352 3.669s101.598 0 122.999-8.073c21.402-8.038 48.128-21.402 34.731-32.068-13.329-10.667-10.667-2.662-29.44 8.004-15.855 9.079-50.688 8.567-72.363 8.175 1.929-0.905 3.891-1.775 5.53-2.799 32.137-18.739 72.175-24.030 85.606-32.137 13.329-8.004-5.376-32.068-5.376-32.068s-10.701 18.739-34.765 24.064c-24.064 5.325-101.598 37.359-101.598 37.359-144.333-26.692-197.837-45.363-197.837-45.363-13.397-26.692-77.568-106.889-77.568-106.889zM742.298 155.563h-238.933c-9.438 0-17.067 7.663-17.067 17.067 0 9.472 7.629 17.067 17.067 17.067h238.933c9.438 0 17.067-7.595 17.067-17.067 0-9.404-7.629-17.067-17.067-17.067z" />
<glyph unicode="&#xe91a;" glyph-name="point" d="M876.322 306.398c-11.52-31.949-30.891-83.797-30.891-116.804v-150.818c0-37.222-29.867-67.072-67.038-67.072h-335.189c-37.188 0-67.038 29.85-67.038 67.072v150.818c0 25.156-45.073 60.757-62.327 75.913-21.47 18.842-42.94 36.642-67.533 52.361-48.708 30.362-138.274 52.89-138.274 123.068 0 83.268 45.551 150.818 134.059 150.818 23.040 0 45.534-3.652 67.038-11.52v195.908c0 72.243 61.269 134.042 133.53 134.042 73.301 0 134.605-60.757 134.605-134.042v-88.525c21.965-1.587 42.94-8.38 62.293-19.388 7.339 1.058 15.206 1.57 22.494 1.57 33.519 0 67.038-11.008 93.218-31.42 98.987 1.058 157.116-66.509 157.116-163.396 0.085-58.624-16.162-114.125-36.062-168.585zM757.965 571.375c-9.95 0-19.9-1.058-29.338-2.594-12.032 21.999-41.899 34.031-65.98 34.031-12.561 0-25.156-3.157-36.13-9.438-16.742 17.801-37.7 27.767-62.31 27.767-16.725 0-41.37-7.356-53.931-18.33v173.329c0 36.13-30.908 67.038-67.038 67.038-35.618 0-67.038-31.932-67.038-67.038v-301.653c-33.007 0-67.038 50.261-134.059 50.261-50.278 0-67.055-39.287-67.055-83.78 0-14.66 60.757-41.37 72.789-47.138 11.537-6.281 23.057-12.561 34.065-19.388 27.733-17.306 51.831-37.222 75.93-58.675 38.229-33.519 85.367-70.707 85.367-126.225v-16.742h335.172v16.742c0 91.614 67.055 181.163 67.055 282.761-0.034 59.255-24.132 99.072-87.501 99.072zM744.875 105.813c-18.278 0-33.502-15.223-33.502-33.519 0-18.33 15.206-33.519 33.502-33.519 18.33 0 33.536 15.189 33.536 33.519-0.017 18.33-15.206 33.519-33.536 33.519z" />
<glyph unicode="&#xe91b;" glyph-name="raquo" d="M1020.343 821.029h-358.4l-84.114-354.743h245.029c0 0 0-3.657 0-3.657-3.657-21.943-10.971-43.886-18.286-65.829-7.314-18.286-18.286-40.229-29.257-58.514s-21.943-36.571-36.571-51.2c-14.629-14.629-29.257-29.257-43.886-40.229-18.286-10.971-32.914-21.943-51.2-29.257s-36.571-14.629-54.857-18.286c-21.943-3.657-47.543-7.314-65.829-7.314l-25.6-117.029c25.6 0 76.8 3.657 117.029 10.971 29.257 7.314 54.857 18.286 80.457 29.257 21.943 10.971 47.543 25.6 69.486 43.886s43.886 36.571 62.171 58.514c18.286 21.943 36.571 43.886 51.2 69.486 14.629 21.943 25.6 47.543 36.571 76.8 7.314 29.257 18.286 58.514 21.943 87.771 0 7.314 3.657 18.286 3.657 25.6l80.457 343.771zM530.286 821.029h-358.4l-80.457-354.743h241.371c0 0 0-3.657 0-3.657-3.657-21.943-10.971-43.886-18.286-65.829-7.314-18.286-18.286-40.229-29.257-58.514s-21.943-36.571-36.571-51.2c-14.629-14.629-29.257-29.257-43.886-40.229-18.286-10.971-32.914-21.943-51.2-29.257s-36.571-14.629-54.857-18.286c-21.943-3.657-47.543-7.314-65.829-7.314l-25.6-117.029c25.6 0 76.8 3.657 117.029 10.971 29.257 7.314 54.857 18.286 80.457 29.257 21.943 10.971 47.543 25.6 69.486 43.886s43.886 36.571 62.171 58.514c18.286 21.943 36.571 43.886 51.2 69.486 14.629 21.943 25.6 47.543 36.571 76.8 7.314 29.257 18.286 58.514 21.943 87.771 0 7.314 3.657 18.286 3.657 25.6l80.457 343.771z" />
<glyph unicode="&#xe91c;" glyph-name="reply" d="M618.338 826.092v-118.154l244.185-244.185h-771.938v417.477h-82.708v-504.123h854.646l-244.185-244.185v-118.154l405.662 405.662z" />
<glyph unicode="&#xe91d;" glyph-name="search" d="M910.746 119.825l-243.575 235.366 4.949 3.772c50.142 58.675 78.899 134.298 78.899 215.757 0 181.914-147.644 329.353-339.234 329.353s-344.269-147.439-344.269-329.353c0-181.879 152.678-334.643 344.269-334.643 47.531 0 92.416 9.404 133.052 26.334l5.495 4.164 252.638-258.492c14.865-14.865 38.997-14.865 53.897 0l53.879 53.897c14.882 14.848 14.882 38.98 0 53.845zM411.153 358.741c-124.399 0-223.556 95.727-223.556 213.862 0 118.101 99.157 213.845 223.556 213.845 124.416 0 220.979-95.744 220.979-213.845 0-118.135-96.563-213.862-220.979-213.862z" />
<glyph unicode="&#xe91e;" glyph-name="share" d="M778.223 356.54c-47.292 0-92.706-17.937-127.761-50.5l-6.758-6.366-242.534 121.327 0.887 9.028c0.58 6.468 1.212 13.551 1.212 20.19 0 6.383-0.631 13.568-1.212 19.934l-0.887 9.097 242.534 121.259 6.758-6.144c35.072-32.683 80.486-50.637 127.761-50.637 103.475 0 187.733 84.241 187.733 187.733 0 103.475-84.258 187.665-187.733 187.665-103.373 0-187.614-84.19-187.614-187.665 0-6.468 0.649-13.67 1.28-20.070l0.836-9.079-242.534-121.276-6.793 6.281c-34.85 32.563-80.265 50.517-127.778 50.517-103.424 0-187.733-84.139-187.733-187.614 0-103.731 84.309-187.665 187.733-187.665 47.514 0 92.928 17.766 127.778 50.295l6.793 6.366 242.534-121.293-0.836-9.131c-0.631-6.332-1.28-13.534-1.28-20.070 0-103.458 84.258-187.597 187.614-187.597 103.475 0 187.733 84.139 187.733 187.597 0 103.509-84.258 187.819-187.733 187.819z" />
<glyph unicode="&#xe91f;" glyph-name="tag" d="M401.067 949.76c-1.707 0-1.707 0-3.413 0l-267.947-18.773c-54.613-3.413-102.4-51.2-105.813-105.813l-18.773-267.947c0-1.707 0-1.707 0-3.413-6.827-32.427 1.707-68.267 25.6-92.16l491.52-491.52c39.253-39.253 102.4-39.253 139.947 0l322.56 322.56c39.253 39.253 39.253 102.4 0 139.947l-489.813 491.52c-25.6 23.893-61.44 32.427-93.867 25.6zM288.427 666.453c-42.667-42.667-110.933-42.667-153.6 0s-42.667 110.933 0 153.6c42.667 42.667 110.933 42.667 153.6 0s42.667-110.933 0-153.6z" />
<glyph unicode="&#xe920;" glyph-name="tel" d="M940.442 96.461c-13.193-30.805-48.401-50.842-76.715-66.662-37.103-20.105-74.871-32.051-116.89-32.051-58.539 0-111.326 23.825-164.779 43.486-38.349 13.722-75.537 30.805-110.080 52.070-106.923 66.082-235.759 194.935-301.773 301.858-21.487 34.611-38.417 71.646-52.275 109.995-19.354 53.453-43.332 106.325-43.332 164.779 0 42.086 11.947 79.855 32.119 116.975 15.616 28.228 35.874 63.505 66.662 76.698 20.668 9.387 64.666 19.507 87.33 19.507 4.403 0 8.806 0 13.193-1.894 13.193-4.403 27.068-35.191 33.365-47.821 20.105-35.857 39.595-72.294 60.279-107.503 10.121-16.35 28.962-36.454 28.962-55.945 0-38.366-113.818-94.31-113.818-128.273 0-17.015 15.77-39.014 24.559-54.118 63.505-114.398 142.694-193.604 257.092-257.109 15.121-8.806 37.12-24.627 54.135-24.627 33.946 0 89.907 113.886 128.341 113.886 19.354 0 39.595-18.842 55.859-28.877 35.191-20.77 71.731-40.26 107.52-60.365 12.612-6.298 43.418-20.241 47.821-33.434 1.894-4.403 1.894-8.806 1.894-13.193 0.034-22.562-10.086-66.56-19.473-87.381z" />
<glyph unicode="&#xe921;" glyph-name="time" d="M511.027 914.773c-259.772 0-470.374-210.62-470.374-470.391s210.603-470.391 470.374-470.391c259.789 0 470.306 210.62 470.306 470.391s-210.517 470.391-470.306 470.391zM510.993 67.755c-208.009 0-376.61 168.636-376.61 376.644s168.636 375.62 376.61 375.62c208.009 0 376.576-167.612 376.576-375.62 0.034-208.009-168.55-376.644-376.576-376.644zM737.451 483.908l-178.33 1.041v251.409c0 26.863-21.777 48.674-48.657 48.674-26.846 0-46.336-21.76-46.336-48.674v-301.107c0-26.863 19.49-46.336 46.336-46.336h226.987c26.863 0 48.657 19.473 48.657 46.336s-21.794 48.657-48.657 48.657z" />
<glyph unicode="&#xe922;" glyph-name="zip" d="M486.229 150.204h68.267v35.191h-68.267v-35.191zM759.279 868.796h-192c0 0 24.081-19.268 20.48-36.335-3.567-16.862-33.775-32.597-33.775-32.597l-35.123 0.137c0 0-33.741-0.529-33.741 34.662s33.075 34.133 33.075 34.133h-270.899c0 0-68.267-2.133-68.267-67.533v-718.268c0 0 2.833-67.908 71.1-67.908h508.092c68.267 0 68.625 70.042 68.625 70.042v716.134c0 0-5.018 67.533-67.567 67.533zM586.479 697.395v-2.133c0-18.859-15.292-33.075-34.133-33.075h-32c-18.859 0-34.133 14.199-34.133 33.075v2.133c0 18.842 15.275 34.133 34.133 34.133h32c18.842 0 34.133-15.258 34.133-34.133zM587.554 560.862c0-18.859-15.275-34.133-34.133-34.133h-34.133c-18.842 0-34.133 15.275-34.133 34.133 0 18.842 15.292 34.133 34.133 34.133h34.133c18.859 0 34.133-15.258 34.133-34.133zM417.963 766.737c0 18.859 15.275 33.075 34.133 33.075h35.191c18.859 0 34.133-14.182 34.133-33.075v-1.058c0-18.842-15.258-34.133-34.133-34.133h-35.191c-18.859 0-34.133 15.292-34.133 34.133v1.058zM451.021 662.204h35.191c18.842 0 34.133-14.199 34.133-33.075s-15.292-34.133-34.133-34.133h-35.191c-18.842 0-34.133 15.275-34.133 34.133s15.275 33.075 34.133 33.075zM416.887 491.537v1.058c0 18.842 15.292 34.133 34.133 34.133h36.267c18.859 0 34.133-15.292 34.133-34.133v-1.058c0-18.842-15.258-34.133-34.133-34.133h-36.267c-18.859 0-34.133 15.258-34.133 34.133zM554.479 117.129h-66.133c-18.859 0-35.191 15.275-35.191 34.133v169.609c0 18.859 16.333 34.133 35.191 34.133h64c18.842 0 35.191-15.275 35.191-34.133l1.058-169.609c0.017-18.859-15.275-34.133-34.116-34.133zM555.554 389.137h-35.191c-18.859 0-34.133 15.292-34.133 34.133 0 18.859 15.275 34.133 34.133 34.133h35.191c18.859 0 34.133-15.275 34.133-34.133s-15.275-34.133-34.133-34.133z" />
</font>
</defs>
</svg>
