<?xml version="1.0" encoding="utf-8"?>
<!-- Generator: Adobe Illustrator 15.1.0, SVG Export Plug-In . SVG Version: 6.00 Build 0)  -->
<!DOCTYPE svg PUBLIC "-//W3C//DTD SVG 1.1//EN" "http://www.w3.org/Graphics/SVG/1.1/DTD/svg11.dtd">
<svg version="1.1" id="レイヤー_1" xmlns="http://www.w3.org/2000/svg" xmlns:xlink="http://www.w3.org/1999/xlink" x="0px"
	 y="0px" width="60px" height="60px" viewBox="0 0 60 60" enable-background="new 0 0 60 60" xml:space="preserve">
<path fill="#000000" d="M45.469,5.242c-0.549,0-1.168,0.13-1.764,0.389c-0.131,0.057-0.271,0.129-0.383,0.217L30.279,16.016
	C30.206,16.074,30,16.146,30,16.213v0.153c0-0.126-0.182-0.251-0.325-0.364L16.443,5.836c-0.106-0.083-0.211-0.15-0.336-0.205
	c-0.596-0.257-1.323-0.389-1.928-0.389C12.225,5.242,10,6.725,10,9.98v27.756c0,2.18,2.511,4.234,3.225,4.801
	c0.549,0.448,13.527,10.986,14.076,11.421c0.578,0.459,1.715,0.797,2.801,0.797s1.736-0.35,2.311-0.798
	c0-0.002,13.441-10.684,14.354-11.406c1.409-1.116,2.235-3.268,2.235-4.812V9.982C49,6.486,47.137,5.242,45.469,5.242z
	 M15.092,39.959C14.014,39.105,13,38.063,13,37.736V9.98c0-0.237,0.316-1.433,1.034-1.433c0.101,0,0.354,0.021,0.473,0.058
	l15.261,11.1C29.988,19.951,30,21.139,30,21.645v29.587C27,48.929,18.669,42.877,15.092,39.959z"/>
</svg>
