<?xml version="1.0" encoding="utf-8"?>
<!-- Generator: Adobe Illustrator 15.1.0, SVG Export Plug-In . SVG Version: 6.00 Build 0)  -->
<!DOCTYPE svg PUBLIC "-//W3C//DTD SVG 1.1//EN" "http://www.w3.org/Graphics/SVG/1.1/DTD/svg11.dtd">
<svg version="1.1" id="レイヤー_1" xmlns="http://www.w3.org/2000/svg" xmlns:xlink="http://www.w3.org/1999/xlink" x="0px"
	 y="0px" width="60px" height="60px" viewBox="0 0 60 60" enable-background="new 0 0 60 60" xml:space="preserve">
<path fill="#000000" d="M36.611,10.996c0,0-1.726-1.568,0.041-1.594l16.216-0.174c0,0,1.126-0.145,0.925,0.946l-0.109,16.209
	c0,0,0.025,1.71-1.682,0.003l-3.898-3.897L38.02,32.568c-1.637,1.479-3.232-0.125-3.232-0.125l-4.212-4.215
	c-1.532-1.636,0.052-3.271,0.052-3.271l9.999-9.947L36.611,10.996z"/>
<path fill="#000000" d="M52,51H7c-1.656,0-3-1.344-3-3V13c0-1.656,1.344-3,3-3h22c1.656,0,3,1.344,3,3s-1.344,3-3,3H10v29h39v-9
	c0-1.656,1.344-3,3-3s3,1.344,3,3v12C55,49.656,53.656,51,52,51z"/>
</svg>
