<?xml version="1.0" encoding="utf-8"?>
<!-- Generator: Adobe Illustrator 15.1.0, SVG Export Plug-In . SVG Version: 6.00 Build 0)  -->
<!DOCTYPE svg PUBLIC "-//W3C//DTD SVG 1.1//EN" "http://www.w3.org/Graphics/SVG/1.1/DTD/svg11.dtd">
<svg version="1.1" id="レイヤー_1" xmlns="http://www.w3.org/2000/svg" xmlns:xlink="http://www.w3.org/1999/xlink" x="0px"
	 y="0px" width="60px" height="60px" viewBox="0 0 60 60" enable-background="new 0 0 60 60" xml:space="preserve">
<g>
	<g>
		<path fill="#000000" d="M45.445,4.086H12.98c-1.561,0-2.823,1.266-2.823,2.823v46.585c0,1.561,1.264,2.823,2.823,2.823h32.465
			c1.562,0,2.824-1.265,2.824-2.823V6.909C48.271,5.352,47.007,4.086,45.445,4.086z M22.861,50.671h-7.059V39.378h7.059V50.671z
			 M22.861,36.555h-7.059v-7.059h7.059V36.555z M22.861,26.673h-7.059v-7.059h7.059V26.673z M22.861,16.791h-7.059V9.732h7.059
			V16.791z M32.743,36.555h-7.06v-7.059h7.06V36.555z M32.743,26.673h-7.06v-7.059h7.06V26.673z M32.743,16.791h-7.06V9.732h7.06
			V16.791z M42.624,50.671h-7.06V39.378h7.06V50.671z M42.624,36.555h-7.06v-7.059h7.06V36.555z M42.624,26.673h-7.06v-7.059h7.06
			V26.673z M42.624,16.791h-7.06V9.732h7.06V16.791z"/>
	</g>
</g>
</svg>
