<?xml version="1.0" encoding="utf-8"?>
<!-- Generator: Adobe Illustrator 15.1.0, SVG Export Plug-In . SVG Version: 6.00 Build 0)  -->
<!DOCTYPE svg PUBLIC "-//W3C//DTD SVG 1.1//EN" "http://www.w3.org/Graphics/SVG/1.1/DTD/svg11.dtd">
<svg version="1.1" id="レイヤー_1" xmlns="http://www.w3.org/2000/svg" xmlns:xlink="http://www.w3.org/1999/xlink" x="0px"
	 y="0px" width="60px" height="60px" viewBox="0 0 60 60" enable-background="new 0 0 60 60" xml:space="preserve">
<g>
	<g>
		<path fill="#000000" d="M17.995,16.745c2.209,0,4-1.791,4-4v-4c0-2.209-1.791-4-4-4s-4,1.791-4,4v4
			C13.995,14.954,15.786,16.745,17.995,16.745z M41.995,16.745c2.209,0,4-1.791,4-4v-4c0-2.209-1.791-4-4-4s-4,1.791-4,4v4
			C37.995,14.954,39.786,16.745,41.995,16.745z M51.995,10.745h-4v2c0,0-0.062,6.062-6,6.062c0,0-6-0.062-6-6l-0.062-2.062h-12v2
			c0,0,0.062,6.062-5.938,6.062c0,0-6.062,0.062-6.062-6v-2.062H7.995c-2.209,0-4,1.79-4,4v36c0,2.209,1.791,4,4,4h44
			c2.209,0,4-1.791,4-4v-36C55.995,12.535,54.204,10.745,51.995,10.745z M15.995,50.745h-8v-6h8V50.745z M15.995,40.745h-8v-6h8
			V40.745z M15.995,30.745h-8v-6h8V30.745z M27.995,50.745h-8v-6h8V50.745z M27.995,40.745h-8v-6h8V40.745z M27.995,30.745h-8v-6h8
			V30.745z M39.995,50.745h-8v-6h8V50.745z M39.995,40.745h-8v-6h8V40.745z M39.995,30.745h-8v-6h8V30.745z M51.995,50.745h-8v-6h8
			V50.745z M51.995,40.745h-8v-6h8V40.745z M51.995,30.745h-8v-6h8V30.745z"/>
	</g>
</g>
</svg>
