<?xml version="1.0" encoding="utf-8"?>
<!-- Generator: Adobe Illustrator 15.1.0, SVG Export Plug-In . SVG Version: 6.00 Build 0)  -->
<!DOCTYPE svg PUBLIC "-//W3C//DTD SVG 1.1//EN" "http://www.w3.org/Graphics/SVG/1.1/DTD/svg11.dtd">
<svg version="1.1" id="レイヤー_1" xmlns="http://www.w3.org/2000/svg" xmlns:xlink="http://www.w3.org/1999/xlink" x="0px"
	 y="0px" width="60px" height="60px" viewBox="0 0 60 60" enable-background="new 0 0 60 60" xml:space="preserve">
<g>
	<g>
		<path fill="#000000" d="M53.981,15.34l-30.645-2.625c-1.326,0-2.812,1.074-2.4,2.4l4.946,18.424
			c0.562,1.662,1.856,1.68,3.183,1.68h23.117c1.325,0,2.399-1.074,2.399-2.398l1.799-14.75C56.381,16.744,55.644,15.49,53.981,15.34
			z M49.38,37.996H23.403L15.205,8.029l-10-0.799c-3.601,1.824-0.4,5.256-0.4,5.256l6.671,0.146l8.853,30.463h28.877
			C53.455,40.146,49.38,37.996,49.38,37.996z M26.229,44.822c-2.317,0-4.199,1.881-4.199,4.199c0,2.316,1.882,4.197,4.199,4.197
			c2.319,0,4.2-1.881,4.2-4.197C30.43,46.703,28.549,44.822,26.229,44.822z M45.241,44.896c-2.299,0-4.161,1.861-4.161,4.16
			c0,2.301,1.862,4.162,4.161,4.162c2.301,0,4.164-1.861,4.164-4.162C49.405,46.759,47.542,44.896,45.241,44.896z"/>
	</g>
</g>
</svg>
