<?xml version="1.0" encoding="utf-8"?>
<!-- Generator: Adobe Illustrator 15.1.0, SVG Export Plug-In . SVG Version: 6.00 Build 0)  -->
<!DOCTYPE svg PUBLIC "-//W3C//DTD SVG 1.1//EN" "http://www.w3.org/Graphics/SVG/1.1/DTD/svg11.dtd">
<svg version="1.1" id="レイヤー_1" xmlns="http://www.w3.org/2000/svg" xmlns:xlink="http://www.w3.org/1999/xlink" x="0px"
	 y="0px" width="60px" height="60px" viewBox="0 0 60 60" enable-background="new 0 0 60 60" xml:space="preserve">
<g>
	<g>
		<path fill="#000000" d="M56.096,49.127L33.623,10.092c0,0-3.375-4.908-7.363-0.076L3.719,49.127c0,0-4.23,4.727,0.715,4.854
			h51.322C55.756,53.979,60.238,53.499,56.096,49.127z M25.968,21.277c0-1.99,2.155-3.438,4.146-3.438
			c1.992,0,3.955,1.448,3.955,3.438v15.023c0,1.991-2.088,3.604-4.08,3.604c-1.99,0-4.021-1.613-4.021-3.604V21.277z M30.236,50.009
			c-2.25,0-4.074-1.825-4.074-4.075s1.824-4.072,4.074-4.072c2.252,0,4.076,1.822,4.076,4.072S32.488,50.009,30.236,50.009z"/>
	</g>
</g>
</svg>
