<?xml version="1.0" encoding="utf-8"?>
<!-- Generator: Adobe Illustrator 15.1.0, SVG Export Plug-In . SVG Version: 6.00 Build 0)  -->
<!DOCTYPE svg PUBLIC "-//W3C//DTD SVG 1.1//EN" "http://www.w3.org/Graphics/SVG/1.1/DTD/svg11.dtd">
<svg version="1.1" id="レイヤー_1" xmlns="http://www.w3.org/2000/svg" xmlns:xlink="http://www.w3.org/1999/xlink" x="0px"
	 y="0px" width="60px" height="60px" viewBox="0 0 60 60" enable-background="new 0 0 60 60" xml:space="preserve">
<g>
	<path fill="#000000" d="M56.617,14.711L36.285,36.226l-3.817,4.044c-0.508,0.534-1.21,0.832-1.913,0.832
		c-0.701,0-1.405-0.298-1.908-0.832l-3.819-4.044L14.66,25.47c-0.506-0.535-0.787-1.278-0.787-2.02c0-0.743,0.283-1.487,0.787-2.018
		l3.821-4.043c0.507-0.537,1.208-0.832,1.908-0.832c0.704,0,1.408,0.297,1.912,0.832l8.254,8.768L48.978,6.631
		c0.508-0.537,1.208-0.83,1.911-0.83c0.699,0,1.406,0.293,1.912,0.83l3.816,4.041c0.506,0.535,0.787,1.276,0.787,2.024
		C57.404,13.435,57.123,14.176,56.617,14.711z"/>
</g>
<path fill="#000000" d="M47.806,56.247H5.002c-1.391,0-2.517-1.191-2.517-2.663V8.293c0-1.474,1.126-2.663,2.517-2.663
	c1.39,0,2.519,1.189,2.519,2.663v42.626h40.285c1.392,0,2.519,1.191,2.519,2.665C50.324,55.056,49.197,56.247,47.806,56.247z"/>
</svg>
