<?xml version="1.0" encoding="utf-8"?>
<!-- Generator: Adobe Illustrator 15.1.0, SVG Export Plug-In . SVG Version: 6.00 Build 0)  -->
<!DOCTYPE svg PUBLIC "-//W3C//DTD SVG 1.1//EN" "http://www.w3.org/Graphics/SVG/1.1/DTD/svg11.dtd">
<svg version="1.1" id="レイヤー_1" xmlns="http://www.w3.org/2000/svg" xmlns:xlink="http://www.w3.org/1999/xlink" x="0px"
	 y="0px" width="60px" height="60px" viewBox="0 0 60 60" enable-background="new 0 0 60 60" xml:space="preserve">
<path fill="#000000" d="M40.535,25.652c0,0,2.377-0.283,1.119,1.009l-11.77,11.835c0,0-0.71,0.916-1.353-0.02L16.835,26.695
	c0,0-1.253-1.043,1.211-1.043h5.726l-0.017-14.559c0.112-2.25,2.425-2.244,2.425-2.244l6.082,0.002c2.289,0.074,2.325,2.4,2.325,2.4
	L34.57,25.65L40.535,25.652L40.535,25.652z"/>
<path fill="#000000" d="M53,33c-1.656,0-3,1.344-3,3v9H9v-9c0-1.656-1.343-3-3-3s-3,1.344-3,3v12c0,1.656,1.343,3,3,3h47
	c1.656,0,3-1.344,3-3V36C56,34.344,54.656,33,53,33z"/>
</svg>
