<?xml version="1.0" encoding="utf-8"?>
<!-- Generator: Adobe Illustrator 15.1.0, SVG Export Plug-In . SVG Version: 6.00 Build 0)  -->
<!DOCTYPE svg PUBLIC "-//W3C//DTD SVG 1.1//EN" "http://www.w3.org/Graphics/SVG/1.1/DTD/svg11.dtd">
<svg version="1.1" id="レイヤー_1" xmlns="http://www.w3.org/2000/svg" xmlns:xlink="http://www.w3.org/1999/xlink" x="0px"
	 y="0px" width="60px" height="60px" viewBox="0 0 60 60" enable-background="new 0 0 60 60" xml:space="preserve">
<path fill="#000000" d="M10.578,49.004l38.917-0.02c0,0,2.375,0.125,3.125-2.625l6.5-21.375c0,0,1.125-4-3.125-4
	c0,0-31.627,0-40.375,0c-1.195,0-2.375,1.748-2.375,1.748L9.453,46.858C9.454,46.859,9.204,49.004,10.578,49.004z M6.5,49.006
	c0,0-1.755-0.271-1.755-2.146L0.87,13.609c0,0-0.125,1.75-0.125-0.625c0-2.373,1.875-2,1.875-2h16.25c2.38,0,2,2.125,2,2.125
	c0,1.75,2.25,2,2.25,2l27.673-0.125c2,0,1.75,2.127,1.75,2.127c0,1.748-1.876,1.873-1.876,1.873H14.62c-4.625,0-4,4-4,4L6.5,49.006z
	"/>
</svg>
