<?xml version="1.0" encoding="utf-8"?>
<!-- Generator: Adobe Illustrator 15.1.0, SVG Export Plug-In . SVG Version: 6.00 Build 0)  -->
<!DOCTYPE svg PUBLIC "-//W3C//DTD SVG 1.1//EN" "http://www.w3.org/Graphics/SVG/1.1/DTD/svg11.dtd">
<svg version="1.1" id="レイヤー_1" xmlns="http://www.w3.org/2000/svg" xmlns:xlink="http://www.w3.org/1999/xlink" x="0px"
	 y="0px" width="60px" height="60px" viewBox="0 0 60 60" enable-background="new 0 0 60 60" xml:space="preserve">
<path fill="#000000" d="M57.657,27.473c0.51,0.445,0.586,1.292,0.156,1.82l-2.432,2.991c-0.199,0.244-0.508,0.399-0.826,0.44
	c-0.041,0-0.08,0-0.111,0c-0.318,0-0.596-0.074-0.826-0.279L29.697,12.424L5.775,32.445c-0.271,0.205-0.586,0.321-0.938,0.279
	c-0.314-0.041-0.628-0.196-0.826-0.44l-2.433-2.991c-0.431-0.528-0.351-1.375,0.159-1.82l24.98-20.912
	c1.644-1.42,4.313-1.42,5.956,0L57.657,27.473z"/>
<path fill="#000000" d="M50.376,52.008c0,1.298-1.039,2.371-2.297,2.371H34.292v-14.22h-9.19v14.22H11.312
	c-1.254,0-2.295-1.073-2.295-2.371V34.233c0-0.075,0.037-0.149,0.037-0.224l20.643-17.554L50.339,34.01
	c0.037,0.072,0.037,0.146,0.037,0.224V52.008z"/>
</svg>
