<?xml version="1.0" encoding="utf-8"?>
<!-- Generator: Adobe Illustrator 22.0.1, SVG Export Plug-In . SVG Version: 6.00 Build 0)  -->
<svg version="1.1" id="レイヤー_1" xmlns="http://www.w3.org/2000/svg" xmlns:xlink="http://www.w3.org/1999/xlink" x="0px"
	 y="0px" width="28px" height="22px" viewBox="0 0 28 22" style="enable-background:new 0 0 28 22;" xml:space="preserve">
<style type="text/css">
	.st0{fill:#000000;}
</style>
<g class="st0">
	<path d="M6.2,9.7c0.2-0.5,0.4-1.1,0.7-1.6c0.3-0.5,0.6-1,1-1.4c0.4-0.4,0.8-0.8,1.2-1.2c0.5-0.3,0.9-0.6,1.4-0.8s1-0.4,1.5-0.5
		C12.6,4.1,13.3,4,13.8,4l0.7-3.3c-0.7,0-2.1,0.1-3.2,0.3c-0.8,0.2-1.5,0.5-2.2,0.8C8.5,2.1,7.8,2.5,7.2,3C6.6,3.4,6,4,5.5,4.6
		C5,5.1,4.5,5.8,4,6.5C3.6,7.1,3.3,7.8,3,8.6C2.8,9.4,2.5,10.2,2.4,11c0,0.2,0,0.4-0.1,0.6l-2.2,9.5h9.7l2.3-9.8H5.7
		C5.9,10.8,6,10.2,6.2,9.7z"/>
	<path d="M20.3,8c0.3-0.5,0.6-1,1-1.4c0.4-0.4,0.8-0.8,1.2-1.1c0.5-0.3,0.9-0.6,1.4-0.8s1-0.4,1.5-0.5C26,4.1,26.7,4,27.2,4l0.7-3.3
		c-0.7,0-2.1,0.1-3.2,0.3c-0.8,0.2-1.5,0.5-2.2,0.8c-0.6,0.3-1.3,0.7-1.9,1.2c-0.6,0.4-1.2,1-1.8,1.6c-0.5,0.6-1,1.2-1.4,1.9
		c-0.4,0.6-0.7,1.3-1,2.1c-0.2,0.8-0.5,1.6-0.6,2.4c0,0.1,0,0.2,0,0.3h-0.1l-2.2,9.8h9.7l2.3-9.8H19c0.1-0.6,0.3-1.1,0.5-1.7
		C19.7,9.1,20,8.5,20.3,8z"/>
</g>
</svg>
