<?xml version="1.0" encoding="utf-8"?>
<!-- Generator: Adobe Illustrator 22.0.1, SVG Export Plug-In . SVG Version: 6.00 Build 0)  -->
<svg version="1.1" xmlns="http://www.w3.org/2000/svg" xmlns:xlink="http://www.w3.org/1999/xlink" x="0px" y="0px" width="60px"
	 height="60px" viewBox="0 0 60 60" style="enable-background:new 0 0 60 60;" xml:space="preserve">
<style type="text/css">
	.st0{fill:#000000;}
</style>
<g id="レイヤー_1">
	<path class="st0" d="M55,18.9H50C50,8.5,41.5,0,31.1,0h-2.7C18,0,9.6,8.5,9.6,18.9H4.5c-1.6,0-3,1.3-3,3V57c0,1.6,1.3,3,3,3H55
		c1.6,0,3-1.3,3-3V21.8C58,20.2,56.7,18.9,55,18.9z M34.8,51.6H24.7l2.8-12.1c-2.6-0.9-4.5-3.5-4.5-6.4c0-3.8,3.1-6.8,6.8-6.8
		s6.8,3.1,6.8,6.8c0,3-1.9,5.5-4.5,6.4L34.8,51.6z M15.7,18.9c0-7,5.7-12.7,12.7-12.7h2.7c7,0,12.7,5.7,12.7,12.7H15.7z"/>
</g>
<g id="レイヤー_2">
</g>
</svg>
