<?xml version="1.0" encoding="utf-8"?>
<!-- Generator: Adobe Illustrator 15.1.0, SVG Export Plug-In . SVG Version: 6.00 Build 0)  -->
<!DOCTYPE svg PUBLIC "-//W3C//DTD SVG 1.1//EN" "http://www.w3.org/Graphics/SVG/1.1/DTD/svg11.dtd">
<svg version="1.1" id="レイヤー_1" xmlns="http://www.w3.org/2000/svg" xmlns:xlink="http://www.w3.org/1999/xlink" x="0px"
	 y="0px" width="60px" height="60px" viewBox="0 0 60 60" enable-background="new 0 0 60 60" xml:space="preserve">
<g>
	<g>
		<path fill="#000000" d="M39.104,30.641c0,0-0.996-1.982-4.236,2.057l-4.303,4.232c0,0-0.93,1.062-2.121,0l-4.236-4.232
			c0,0-3.047-4.238-4.236-2.188L7.258,44.484c0,0-4.172,4.301,0.066,4.301h44.491c0,0,4.17,0-0.066-4.171L39.104,30.641z
			 M17.997,29.293c1.194-1.195-1.281-2.822-1.281-2.822L5.777,17.523c-3.276-3.276-2.696-0.174-2.696-0.174L3.02,43.352
			c0,4.104,4.237-2.25,4.237-2.25L17.997,29.293z M28.523,32.6c0,0,0.978,1.312,2.026-0.025l23.249-19.078
			c0,0,2.048-1.986-1.979-1.986H7.09c0,0-4.044-0.02-1.992,2.092L28.523,32.6z M55.939,17.35c0,0,0.579-3.104-2.694,0.174
			l-10.942,8.947c0,0-2.476,1.627-1.281,2.822l10.741,11.81c0,0,4.238,6.354,4.238,2.25L55.939,17.35z"/>
	</g>
</g>
</svg>
