<?xml version="1.0" encoding="utf-8"?>
<!-- Generator: Adobe Illustrator 15.1.0, SVG Export Plug-In . SVG Version: 6.00 Build 0)  -->
<!DOCTYPE svg PUBLIC "-//W3C//DTD SVG 1.1//EN" "http://www.w3.org/Graphics/SVG/1.1/DTD/svg11.dtd">
<svg version="1.1" id="レイヤー_1" xmlns="http://www.w3.org/2000/svg" xmlns:xlink="http://www.w3.org/1999/xlink" x="0px"
	 y="0px" width="60px" height="60px" viewBox="0 0 60 60" enable-background="new 0 0 60 60" xml:space="preserve">
<g>
	<g>
		<path fill="#000000" d="M28.893,3.882c-10.57,0-19.828,8.57-19.828,19.142c0,3.789,2.375,9.579,6.523,15.351
			c5.178,7.202,9.432,13.972,11.462,16.168c0.998,1.078,2.29,1.161,3.261,0.012c1.955-2.315,6.684-8.925,12.008-16.184
			c4.054-5.524,6.662-11.462,6.662-15.347C48.979,12.452,39.465,3.882,28.893,3.882z M29.021,30.902c-4.972,0-9-4.028-9-9
			c0-4.971,4.028-8.998,9-8.998c4.971,0,9,4.027,9,8.998C38.021,26.874,33.992,30.902,29.021,30.902z"/>
	</g>
</g>
</svg>
