<?xml version="1.0" encoding="utf-8"?>
<!-- Generator: Adobe Illustrator 15.1.0, SVG Export Plug-In . SVG Version: 6.00 Build 0)  -->
<!DOCTYPE svg PUBLIC "-//W3C//DTD SVG 1.1//EN" "http://www.w3.org/Graphics/SVG/1.1/DTD/svg11.dtd">
<svg version="1.1" id="レイヤー_1" xmlns="http://www.w3.org/2000/svg" xmlns:xlink="http://www.w3.org/1999/xlink" x="0px"
	 y="0px" width="60px" height="60px" viewBox="0 0 60 60" enable-background="new 0 0 60 60" xml:space="preserve">
<g>
	<path fill="#000000" d="M29.997,3.459c-14.42,0-26.11,11.689-26.11,26.11c0,14.419,11.689,26.106,26.11,26.106
		c14.419,0,26.104-11.688,26.104-26.106C56.103,15.148,44.416,3.459,29.997,3.459z M21,37h-2.503L14,28.633V37h-3V24h2.699
		L19,32.525V24h2V37z M33,37h-9V24h9v2h-7v3h6v2h-6v4h7V37z M46.736,37H44.13l-2.424-9.098L39.29,37h-2.664l-2.905-13h2.516
		l1.834,8.358L40.297,24h2.922l2.135,8.5l1.867-8.5h2.475L46.736,37z"/>
</g>
</svg>
