<?xml version="1.0" encoding="utf-8"?>
<!-- Generator: Adobe Illustrator 15.1.0, SVG Export Plug-In . SVG Version: 6.00 Build 0)  -->
<!DOCTYPE svg PUBLIC "-//W3C//DTD SVG 1.1//EN" "http://www.w3.org/Graphics/SVG/1.1/DTD/svg11.dtd">
<svg version="1.1" id="レイヤー_1" xmlns="http://www.w3.org/2000/svg" xmlns:xlink="http://www.w3.org/1999/xlink" x="0px"
	 y="0px" width="60px" height="60px" viewBox="0 0 60 60" enable-background="new 0 0 60 60" xml:space="preserve">
<g>
	<g>
		<path fill="#000000" d="M27.668,27.971l-3.76,7.363c0,0,7.207-1.723,8.461-1.879C32.369,33.455,27.982,29.537,27.668,27.971z
			 M37.684,34.072c-0.757-0.35-1.834-0.627-3.022-1.188c0.487,0.396,1.581,1.195,2.407,1.195
			C37.236,34.08,37.451,34.076,37.684,34.072z M44.494,5.092h-30c0,0-4-0.188-4,3.645v42.337c0,0,0.043,4.039,4.043,4.039h29.832
			c4,0,4.146-4.164,4.146-4.164V8.736C48.516,8.736,48.162,5.092,44.494,5.092z M18.582,43.322
			c-1.723,1.883-3.133,1.098-3.133,1.098c-1.252-0.625-0.627-2.348-0.312-3.133c0.312-0.781,5.17-3.918,5.17-3.918
			c-0.627,0.939-3.604,4.387-3.604,4.387c-1.254,1.729,0.627,0.941,0.627,0.941c0.783-0.312,2.506-2.82,2.506-2.82
			c4.072-5.797,7.049-14.57,7.049-14.57c-0.312-0.625-0.783-4.543-0.625-7.203c0.156-2.664,2.818-0.94,2.818-0.94
			c0.783,1.098-0.312,5.172-0.312,5.172l-0.313-1.883c0.313-1.095-0.312-2.505-0.312-2.505c-0.312-1.254-0.939,0.156-0.783,1.566
			s1.254,5.953,1.254,5.953c1.6,4.611,3.988,6.446,6.05,7.418c-0.158-0.129-0.255-0.215-0.255-0.215s5.953,0,7.207,0.473
			c1.254,0.471,2.82,1.254,2.035,1.879c-0.781,0.625-0.625,0.156-1.725-0.469c-0.929-0.532-2.97-0.502-4.24-0.479
			c0.113,0.053,0.228,0.104,0.324,0.164c1.883,1.098,4.229,1.408,5.016,1.883C43.805,36.59,42.709,38,42.709,38
			s-0.627-1.098-2.037-1.41c-1.41-0.312-5.953-2.189-5.953-2.189c-8.457,1.564-11.592,2.658-11.592,2.658
			C22.342,38.623,18.582,43.322,18.582,43.322z M43.494,47.135h-14c-0.553,0-1-0.449-1-1c0-0.555,0.447-1,1-1h14
			c0.553,0,1,0.445,1,1C44.494,46.686,44.047,47.135,43.494,47.135z"/>
	</g>
</g>
</svg>
