<?xml version="1.0" encoding="utf-8"?>
<!-- Generator: Adobe Illustrator 15.1.0, SVG Export Plug-In . SVG Version: 6.00 Build 0)  -->
<!DOCTYPE svg PUBLIC "-//W3C//DTD SVG 1.1//EN" "http://www.w3.org/Graphics/SVG/1.1/DTD/svg11.dtd">
<svg version="1.1" id="レイヤー_1" xmlns="http://www.w3.org/2000/svg" xmlns:xlink="http://www.w3.org/1999/xlink" x="0px"
	 y="0px" width="60px" height="60px" viewBox="0 0 60 60" enable-background="new 0 0 60 60" xml:space="preserve">
<g>
	<path fill="#000000" d="M51.347,38.297c-0.675,1.872-1.81,4.91-1.81,6.844v8.837c0,2.181-1.75,3.93-3.928,3.93H25.969
		c-2.179,0-3.928-1.749-3.928-3.93v-8.837c0-1.474-2.641-3.56-3.652-4.448c-1.258-1.104-2.516-2.147-3.957-3.068
		c-2.854-1.779-8.102-3.099-8.102-7.211c0-4.879,2.669-8.837,7.855-8.837c1.35,0,2.668,0.214,3.928,0.675V10.773
		c0-4.233,3.59-7.854,7.824-7.854c4.295,0,7.887,3.56,7.887,7.854v5.187c1.287,0.093,2.516,0.491,3.65,1.136
		c0.43-0.062,0.891-0.092,1.318-0.092c1.964,0,3.928,0.645,5.462,1.841c5.8-0.062,9.206,3.897,9.206,9.574
		C53.465,31.854,52.513,35.106,51.347,38.297z M44.412,22.771c-0.583,0-1.166,0.062-1.719,0.152
		c-0.705-1.289-2.455-1.994-3.866-1.994c-0.736,0-1.474,0.185-2.117,0.553c-0.981-1.043-2.209-1.627-3.651-1.627
		c-0.98,0-2.424,0.431-3.16,1.074V10.773c0-2.117-1.811-3.928-3.928-3.928c-2.087,0-3.928,1.871-3.928,3.928v17.675
		c-1.934,0-3.928-2.945-7.855-2.945c-2.946,0-3.929,2.302-3.929,4.909c0,0.859,3.56,2.424,4.265,2.762
		c0.676,0.368,1.351,0.736,1.996,1.136c1.625,1.014,3.037,2.181,4.449,3.438c2.24,1.964,5.002,4.143,5.002,7.396v0.981h19.639
		v-0.981c0-5.368,3.929-10.615,3.929-16.568C49.537,25.104,48.125,22.771,44.412,22.771z M43.645,50.05
		c-1.071,0-1.963,0.892-1.963,1.964c0,1.074,0.891,1.964,1.963,1.964c1.074,0,1.965-0.89,1.965-1.964
		C45.609,50.94,44.719,50.05,43.645,50.05z"/>
</g>
</svg>
