<?xml version="1.0" encoding="utf-8"?>
<!-- Generator: Adobe Illustrator 22.0.1, SVG Export Plug-In . SVG Version: 6.00 Build 0)  -->
<svg version="1.1" id="レイヤー_1" xmlns="http://www.w3.org/2000/svg" xmlns:xlink="http://www.w3.org/1999/xlink" x="0px"
	 y="0px" width="28px" height="22px" viewBox="0 0 28 22" style="enable-background:new 0 0 28 22;" xml:space="preserve">
<style type="text/css">
	.st0{fill:#000000;}
</style>
<g class="st0">
	<path d="M27.9,0.8h-9.8l-2.3,9.7h6.7c0,0,0,0.1,0,0.1c-0.1,0.6-0.3,1.2-0.5,1.8c-0.2,0.5-0.5,1.1-0.8,1.6s-0.6,1-1,1.4
		c-0.4,0.4-0.8,0.8-1.2,1.1c-0.5,0.3-0.9,0.6-1.4,0.8s-1,0.4-1.5,0.5c-0.6,0.1-1.3,0.2-1.8,0.2l-0.7,3.2c0.7,0,2.1-0.1,3.2-0.3
		c0.8-0.2,1.5-0.5,2.2-0.8c0.6-0.3,1.3-0.7,1.9-1.2c0.6-0.5,1.2-1,1.7-1.6c0.5-0.6,1-1.2,1.4-1.9c0.4-0.6,0.7-1.3,1-2.1
		c0.2-0.8,0.5-1.6,0.6-2.4c0-0.2,0.1-0.5,0.1-0.7L27.9,0.8z"/>
	<path d="M14.5,0.8H4.7l-2.2,9.7h6.6c0,0,0,0.1,0,0.1c-0.1,0.6-0.3,1.2-0.5,1.8c-0.2,0.5-0.5,1.1-0.8,1.6s-0.6,1-1,1.4
		c-0.4,0.4-0.8,0.8-1.2,1.1c-0.5,0.3-0.9,0.6-1.4,0.8s-1,0.4-1.5,0.5C2.1,17.9,1.4,18,0.9,18l-0.7,3.2c0.7,0,2.1-0.1,3.2-0.3
		c0.8-0.2,1.5-0.5,2.2-0.8c0.6-0.3,1.3-0.7,1.9-1.2s1.2-1,1.7-1.6c0.5-0.6,1-1.2,1.4-1.9c0.4-0.6,0.7-1.3,1-2.1
		c0.2-0.8,0.5-1.6,0.6-2.4c0-0.2,0.1-0.5,0.1-0.7L14.5,0.8z"/>
</g>
</svg>
