<?xml version="1.0" encoding="utf-8"?>
<!-- Generator: Adobe Illustrator 15.1.0, SVG Export Plug-In . SVG Version: 6.00 Build 0)  -->
<!DOCTYPE svg PUBLIC "-//W3C//DTD SVG 1.1//EN" "http://www.w3.org/Graphics/SVG/1.1/DTD/svg11.dtd">
<svg version="1.1" id="レイヤー_1" xmlns="http://www.w3.org/2000/svg" xmlns:xlink="http://www.w3.org/1999/xlink" x="0px"
	 y="0px" width="60px" height="60px" viewBox="0 0 60 60" enable-background="new 0 0 60 60" xml:space="preserve">
<g>
	<g>
		<path fill="#000000" d="M53.364,49.229L39.092,35.438l0.29-0.221c2.938-3.438,4.623-7.869,4.623-12.642
			c0-10.659-8.651-19.298-19.877-19.298S3.956,11.916,3.956,22.575c0,10.657,8.946,19.608,20.172,19.608
			c2.785,0,5.415-0.551,7.796-1.543l0.322-0.244l14.803,15.146c0.871,0.871,2.285,0.871,3.158,0l3.157-3.158
			C54.236,51.514,54.236,50.1,53.364,49.229z M24.091,35.23c-7.289,0-13.099-5.609-13.099-12.531c0-6.92,5.81-12.53,13.099-12.53
			c7.29,0,12.948,5.61,12.948,12.53C37.039,29.621,31.381,35.23,24.091,35.23z"/>
	</g>
</g>
</svg>
