<?xml version="1.0" encoding="utf-8"?>
<!-- Generator: Adobe Illustrator 15.1.0, SVG Export Plug-In . SVG Version: 6.00 Build 0)  -->
<!DOCTYPE svg PUBLIC "-//W3C//DTD SVG 1.1//EN" "http://www.w3.org/Graphics/SVG/1.1/DTD/svg11.dtd">
<svg version="1.1" id="レイヤー_1" xmlns="http://www.w3.org/2000/svg" xmlns:xlink="http://www.w3.org/1999/xlink" x="0px"
	 y="0px" width="60px" height="60px" viewBox="0 0 60 60" enable-background="new 0 0 60 60" xml:space="preserve">
<g>
	<path d="M45.599,35.359c-2.771,0-5.432,1.051-7.486,2.959l-0.396,0.373l-14.211-7.109l0.052-0.529
		c0.034-0.379,0.071-0.794,0.071-1.183c0-0.374-0.037-0.795-0.071-1.168l-0.052-0.533l14.211-7.105l0.396,0.36
		c2.055,1.915,4.716,2.967,7.486,2.967c6.063,0,11-4.936,11-11c0-6.063-4.937-10.996-11-10.996c-6.057,0-10.993,4.933-10.993,10.996
		c0,0.379,0.038,0.801,0.075,1.176l0.049,0.532l-14.211,7.106l-0.398-0.368c-2.042-1.908-4.703-2.96-7.487-2.96
		c-6.06,0-11,4.93-11,10.993c0,6.078,4.94,10.996,11,10.996c2.784,0,5.445-1.041,7.487-2.947l0.398-0.373l14.211,7.107l-0.049,0.535
		c-0.037,0.371-0.075,0.793-0.075,1.176c0,6.062,4.937,10.992,10.993,10.992c6.063,0,11-4.93,11-10.992
		C56.599,40.299,51.662,35.359,45.599,35.359z"/>
</g>
</svg>
