<?xml version="1.0" encoding="utf-8"?>
<!-- Generator: Adobe Illustrator 15.1.0, SVG Export Plug-In . SVG Version: 6.00 Build 0)  -->
<!DOCTYPE svg PUBLIC "-//W3C//DTD SVG 1.1//EN" "http://www.w3.org/Graphics/SVG/1.1/DTD/svg11.dtd">
<svg version="1.1" id="レイヤー_1" xmlns="http://www.w3.org/2000/svg" xmlns:xlink="http://www.w3.org/1999/xlink" x="0px"
	 y="0px" width="60px" height="60px" viewBox="0 0 60 60" enable-background="new 0 0 60 60" xml:space="preserve">
<style type="text/css">
	.st0{fill:#000000;}
</style>
<g>
	<path class="st0" d="M55.104,50.598c-0.773,1.805-2.836,2.979-4.495,3.906c-2.174,1.178-4.387,1.878-6.849,1.878
		c-3.43,0-6.523-1.396-9.655-2.548c-2.247-0.804-4.426-1.805-6.45-3.051c-6.265-3.872-13.814-11.422-17.682-17.687
		c-1.259-2.028-2.251-4.198-3.063-6.445c-1.134-3.132-2.539-6.23-2.539-9.655c0-2.466,0.7-4.679,1.882-6.854
		c0.915-1.654,2.102-3.721,3.906-4.494c1.211-0.55,3.789-1.143,5.117-1.143c0.258,0,0.516,0,0.773,0.111
		c0.773,0.258,1.586,2.062,1.955,2.802c1.178,2.101,2.32,4.236,3.532,6.299c0.593,0.958,1.697,2.136,1.697,3.278
		c0,2.248-6.669,5.526-6.669,7.516c0,0.997,0.924,2.286,1.439,3.171c3.721,6.703,8.361,11.344,15.064,15.065
		c0.886,0.516,2.175,1.443,3.172,1.443c1.989,0,5.268-6.673,7.52-6.673c1.134,0,2.32,1.104,3.273,1.692
		c2.062,1.217,4.203,2.359,6.3,3.537c0.739,0.369,2.544,1.186,2.802,1.959c0.111,0.258,0.111,0.516,0.111,0.773
		C56.247,46.8,55.654,49.378,55.104,50.598z"/>
</g>
</svg>
