<?xml version="1.0" encoding="utf-8"?>
<!-- Generator: Adobe Illustrator 15.1.0, SVG Export Plug-In . SVG Version: 6.00 Build 0)  -->
<!DOCTYPE svg PUBLIC "-//W3C//DTD SVG 1.1//EN" "http://www.w3.org/Graphics/SVG/1.1/DTD/svg11.dtd">
<svg version="1.1" id="レイヤー_1" xmlns="http://www.w3.org/2000/svg" xmlns:xlink="http://www.w3.org/1999/xlink" x="0px"
	 y="0px" width="60px" height="60px" viewBox="0 0 60 60" enable-background="new 0 0 60 60" xml:space="preserve">
<g>
	<g>
		<path fill="#000000" d="M29.943,2.65c-15.221,0-27.561,12.341-27.561,27.562c0,15.221,12.34,27.562,27.561,27.562
			c15.222,0,27.557-12.341,27.557-27.562C57.5,14.991,45.165,2.65,29.943,2.65z M29.941,52.28c-12.188,0-22.067-9.881-22.067-22.069
			c0-12.188,9.881-22.009,22.067-22.009c12.188,0,22.065,9.821,22.065,22.009C52.008,42.399,42.13,52.28,29.941,52.28z
			 M43.21,27.896l-10.449-0.061V13.104c0-1.574-1.276-2.852-2.851-2.852c-1.573,0-2.715,1.275-2.715,2.852v17.643
			c0,1.574,1.142,2.715,2.715,2.715h13.3c1.574,0,2.851-1.141,2.851-2.715S44.784,27.896,43.21,27.896z"/>
	</g>
</g>
</svg>
