<?xml version="1.0" encoding="utf-8"?>
<!-- Generator: Adobe Illustrator 15.1.0, SVG Export Plug-In . SVG Version: 6.00 Build 0)  -->
<!DOCTYPE svg PUBLIC "-//W3C//DTD SVG 1.1//EN" "http://www.w3.org/Graphics/SVG/1.1/DTD/svg11.dtd">
<svg version="1.1" id="レイヤー_1" xmlns="http://www.w3.org/2000/svg" xmlns:xlink="http://www.w3.org/1999/xlink" x="0px"
	 y="0px" width="60px" height="60px" viewBox="0 0 60 60" enable-background="new 0 0 60 60" xml:space="preserve">
<g>
	<g>
		<path fill="#000000" d="M28.49,47.449h4v-2.062h-4V47.449z M44.489,5.344h-11.25c0,0,1.411,1.129,1.2,2.129
			c-0.209,0.988-1.979,1.91-1.979,1.91l-2.058-0.008c0,0-1.977,0.031-1.977-2.031c0-2.062,1.938-2,1.938-2H14.49
			c0,0-4,0.125-4,3.957v42.086c0,0,0.166,3.979,4.166,3.979h29.771c4,0,4.021-4.104,4.021-4.104V9.301
			C48.448,9.301,48.154,5.344,44.489,5.344z M34.364,15.387v0.125c0,1.105-0.896,1.938-2,1.938h-1.875c-1.105,0-2-0.832-2-1.938
			v-0.125c0-1.104,0.895-2,2-2h1.875C33.468,13.387,34.364,14.281,34.364,15.387z M34.427,23.387c0,1.105-0.895,2-2,2h-2
			c-1.104,0-2-0.895-2-2c0-1.104,0.896-2,2-2h2C33.532,21.387,34.427,22.281,34.427,23.387z M24.49,11.324
			c0-1.105,0.895-1.938,2-1.938h2.062c1.105,0,2,0.831,2,1.938v0.062c0,1.104-0.894,2-2,2H26.49c-1.105,0-2-0.896-2-2V11.324z
			 M26.427,17.449h2.062c1.104,0,2,0.832,2,1.938c0,1.106-0.896,2-2,2h-2.062c-1.104,0-2-0.895-2-2
			C24.427,18.282,25.322,17.449,26.427,17.449z M24.427,27.449v-0.062c0-1.104,0.896-2,2-2h2.125c1.105,0,2,0.896,2,2v0.062
			c0,1.104-0.894,2-2,2h-2.125C25.322,29.449,24.427,28.555,24.427,27.449z M32.489,49.387h-3.875c-1.105,0-2.062-0.895-2.062-2
			v-9.938c0-1.105,0.957-2,2.062-2h3.75c1.104,0,2.062,0.895,2.062,2l0.062,9.938C34.489,48.492,33.593,49.387,32.489,49.387z
			 M32.552,33.449H30.49c-1.105,0-2-0.896-2-2c0-1.105,0.895-2,2-2h2.062c1.105,0,2,0.895,2,2
			C34.552,32.554,33.657,33.449,32.552,33.449z"/>
	</g>
</g>
</svg>
